<svg width="17" height="12" viewBox="0 0 17 12" version="1.1" xmlns="http://www.w3.org/2000/svg" xmlns:xlink="http://www.w3.org/1999/xlink">
<rect x="16876" y="9065" width="17" height="12" fill="#F2F2F2"/>
<path d="M 16491 4436L 17891 4436L 17891 15630L 16491 15630L 16491 4436Z" fill="#DADADA"/>
<path id="path0_fill" fill-rule="evenodd" d="M 6.77407 8.16667C 6.77407 9.19608 6.44167 10.0368 5.77687 10.6887C 5.11207 11.3407 4.30973 11.6667 3.36984 11.6667C 2.42995 11.6667 1.63334 11.3407 0.980005 10.6887C 0.326665 10.0368 0 9.17321 0 8.09804C 0 7.16013 0.35532 6.17648 1.06597 5.14706L 4.36704 0L 7.46179 0L 5.15792 5.14706C 6.23536 5.81046 6.77407 6.81699 6.77407 8.16667ZM 15.6452 8.16667C 15.6452 9.19608 15.3128 10.0368 14.648 10.6887C 13.9832 11.3407 13.1808 11.6667 12.2409 11.6667C 11.301 11.6667 10.5044 11.3407 9.8511 10.6887C 9.19776 10.0368 8.87109 9.17321 8.87109 8.09804C 8.87109 7.16013 9.22641 6.17648 9.93706 5.14706L 13.2381 0L 16.3329 0L 14.029 5.14706C 15.1065 5.81046 15.6452 6.81699 15.6452 8.16667Z"/>
</svg>
