<svg width="187" height="60" viewBox="0 0 187 60" fill="none" xmlns="http://www.w3.org/2000/svg">
<path d="M23.52 0.959995C27.7333 0.959995 31.44 1.57333 34.64 2.8C37.8933 4.02666 40.8 5.86666 43.36 8.32L36.72 16.16C32.88 13.12 28.8533 11.6 24.64 11.6C22.4533 11.6 20.7733 12.0267 19.6 12.88C18.48 13.68 17.92 14.8267 17.92 16.32C17.92 17.3867 18.2133 18.2667 18.8 18.96C19.3867 19.6533 20.3733 20.32 21.76 20.96C23.1467 21.6 25.3333 22.4 28.32 23.36C34.0267 25.1733 38.1867 27.4667 40.8 30.24C43.4667 32.96 44.8 36.7467 44.8 41.6C44.8 45.12 43.8933 48.24 42.08 50.96C40.2667 53.6267 37.6267 55.7067 34.16 57.2C30.7467 58.6933 26.72 59.44 22.08 59.44C13.2267 59.44 6 56.7467 0.4 51.36L7.68 43.28C12.1067 46.9067 16.72 48.72 21.52 48.72C24.0267 48.72 25.9733 48.1867 27.36 47.12C28.7467 46 29.44 44.5333 29.44 42.72C29.44 41.44 29.1733 40.4 28.64 39.6C28.1067 38.7467 27.1467 38 25.76 37.36C24.4267 36.6667 22.4533 35.92 19.84 35.12C13.5467 33.1467 9.12 30.7733 6.56 28C4 25.2267 2.72 21.7333 2.72 17.52C2.72 14.2133 3.6 11.3067 5.36 8.8C7.17333 6.29333 9.65333 4.37333 12.8 3.04C16 1.65333 19.5733 0.959995 23.52 0.959995ZM94.7263 39.36C94.7263 43.2 93.8729 46.64 92.1663 49.68C90.5129 52.72 88.0063 55.12 84.6463 56.88C81.2863 58.5867 77.1796 59.44 72.3263 59.44C64.9663 59.44 59.3929 57.6533 55.6063 54.08C51.8196 50.4533 49.9263 45.5467 49.9263 39.36V2.4H64.7263V38.88C64.7263 42.24 65.3129 44.72 66.4863 46.32C67.7129 47.8667 69.6596 48.64 72.3263 48.64C74.9929 48.64 76.9129 47.84 78.0863 46.24C79.2596 44.64 79.8463 42.1867 79.8463 38.88V2.4H94.7263V39.36ZM121.403 37.52H117.323V58H102.523V2.4H121.803C129.643 2.4 135.483 3.81333 139.323 6.64C143.216 9.46666 145.163 13.8133 145.163 19.68C145.163 23.2 144.336 26.1333 142.683 28.48C141.083 30.8267 138.496 32.9333 134.923 34.8L148.763 58H132.283L121.403 37.52ZM117.323 27.44H122.283C127.403 27.44 129.963 24.8533 129.963 19.68C129.963 17.28 129.243 15.52 127.803 14.4C126.416 13.28 124.31 12.72 121.483 12.72H117.323V27.44ZM152.133 58V2.4H186.293L184.773 12.88H166.933V26.24H182.613V36.72H166.933V58H152.133Z" fill="white"/>
</svg>
